<svg width="128" height="128" viewBox="0 0 128 128" fill="none" xmlns="http://www.w3.org/2000/svg">
<path d="M64 117.333C56.6222 117.333 50.3333 114.733 45.1333 109.533C39.9333 104.333 37.3333 98.0444 37.3333 90.6667C37.3333 86.4 38.2667 82.4222 40.1333 78.7333C42 75.0444 44.6222 71.9111 48 69.3333V26.6667C48 22.2222 49.5556 18.4444 52.6667 15.3333C55.7778 12.2222 59.5556 10.6667 64 10.6667C68.4445 10.6667 72.2222 12.2222 75.3333 15.3333C78.4445 18.4444 80 22.2222 80 26.6667V69.3333C83.3778 71.9111 86 75.0444 87.8667 78.7333C89.7333 82.4222 90.6667 86.4 90.6667 90.6667C90.6667 98.0444 88.0667 104.333 82.8667 109.533C77.6667 114.733 71.3778 117.333 64 117.333ZM58.6667 58.6667H69.3333V53.3333H64V48H69.3333V37.3333H64V32H69.3333V26.6667C69.3333 25.1555 68.8222 23.8889 67.8 22.8667C66.7778 21.8444 65.5111 21.3333 64 21.3333C62.4889 21.3333 61.2222 21.8444 60.2 22.8667C59.1778 23.8889 58.6667 25.1555 58.6667 26.6667V58.6667Z" fill="#339AF0"/>
</svg>
