<svg width="212" height="212" viewBox="0 0 212 212" fill="none" xmlns="http://www.w3.org/2000/svg">
<g clip-path="url(#clip0_12_85)">
<path d="M106 185.5C99.8167 185.5 94.5903 183.365 90.3208 179.096C86.0514 174.826 83.9167 169.6 83.9167 163.417C83.9167 157.233 86.0514 152.007 90.3208 147.738C94.5903 143.468 99.8167 141.333 106 141.333C112.183 141.333 117.41 143.468 121.679 147.738C125.949 152.007 128.083 157.233 128.083 163.417C128.083 169.6 125.949 174.826 121.679 179.096C117.41 183.365 112.183 185.5 106 185.5ZM56.0917 135.592L37.5417 116.6C46.2278 107.914 56.4229 101.031 68.1271 95.9521C79.8313 90.8729 92.4556 88.3333 106 88.3333C119.544 88.3333 132.169 90.9097 143.873 96.0625C155.577 101.215 165.772 108.208 174.458 117.042L155.908 135.592C149.431 129.114 141.922 124.035 133.383 120.354C124.844 116.674 115.717 114.833 106 114.833C96.2833 114.833 87.1556 116.674 78.6167 120.354C70.0778 124.035 62.5694 129.114 56.0917 135.592ZM18.55 98.05L-1.90735e-06 79.5C13.5444 65.6611 29.3708 54.8403 47.4792 47.0375C65.5875 39.2347 85.0944 35.3333 106 35.3333C126.906 35.3333 146.413 39.2347 164.521 47.0375C182.629 54.8403 198.456 65.6611 212 79.5L193.45 98.05C182.114 86.7139 168.974 77.8438 154.031 71.4396C139.088 65.0354 123.078 61.8333 106 61.8333C88.9222 61.8333 72.9118 65.0354 57.9687 71.4396C43.0257 77.8438 29.8861 86.7139 18.55 98.05Z" fill="#339AF0"/>
</g>
<defs>
<clipPath id="clip0_12_85">
<rect width="212" height="212" fill="white"/>
</clipPath>
</defs>
</svg>
