<svg width="212" height="151" viewBox="0 0 212 151" fill="none" xmlns="http://www.w3.org/2000/svg">
<path d="M106 150.5C99.8167 150.5 94.5903 148.365 90.3208 144.096C86.0514 139.826 83.9167 134.6 83.9167 128.417C83.9167 122.233 86.0514 117.007 90.3208 112.738C94.5903 108.468 99.8167 106.333 106 106.333C112.183 106.333 117.41 108.468 121.679 112.738C125.949 117.007 128.083 122.233 128.083 128.417C128.083 134.6 125.949 139.826 121.679 144.096C117.41 148.365 112.183 150.5 106 150.5ZM56.0917 100.592L37.5417 81.6C46.2278 72.9139 56.4229 66.0313 68.1271 60.9521C79.8312 55.8729 92.4556 53.3333 106 53.3333C119.544 53.3333 132.169 55.9097 143.873 61.0625C155.577 66.2153 165.772 73.2083 174.458 82.0417L155.908 100.592C149.431 94.1139 141.922 89.0347 133.383 85.3542C124.844 81.6736 115.717 79.8333 106 79.8333C96.2833 79.8333 87.1556 81.6736 78.6167 85.3542C70.0778 89.0347 62.5694 94.1139 56.0917 100.592ZM18.55 63.05L0 44.5C13.5444 30.6611 29.3708 19.8403 47.4792 12.0375C65.5875 4.23473 85.0944 0.333344 106 0.333344C126.906 0.333344 146.412 4.23473 164.521 12.0375C182.629 19.8403 198.456 30.6611 212 44.5L193.45 63.05C182.114 51.7139 168.974 42.8438 154.031 36.4396C139.088 30.0354 123.078 26.8333 106 26.8333C88.9222 26.8333 72.9118 30.0354 57.9688 36.4396C43.0257 42.8438 29.8861 51.7139 18.55 63.05Z" fill="#FF6B6B"/>
</svg>
