<svg width="96" height="96" viewBox="0 0 96 96" fill="none" xmlns="http://www.w3.org/2000/svg">
<path d="M88 64C88 65.1333 87.6167 66.0833 86.85 66.85C86.0833 67.6167 85.1333 68 84 68H20C18.8667 68 17.9167 67.6167 17.15 66.85C16.3833 66.0833 16 65.1333 16 64V56H8L8 40H16V32C16 30.8667 16.3833 29.9167 17.15 29.15C17.9167 28.3833 18.8667 28 20 28H48C48.0667 34.6667 50.4167 40.3333 55.05 45C59.6833 49.6667 65.3333 52 72 52C75.0667 52 77.9667 51.4667 80.7 50.4C83.4333 49.3333 85.8667 47.8333 88 45.9V64ZM48 60V36H24L24 60H48ZM88 30H76V40L56 26L68 26V16L88 30Z" fill="white"/>
</svg>
