<svg width="128" height="128" viewBox="0 0 128 128" fill="none" xmlns="http://www.w3.org/2000/svg">
<path d="M64.0001 117.333C56.6223 117.333 49.689 115.933 43.2001 113.133C36.7112 110.333 31.0667 106.533 26.2667 101.733C21.4667 96.9333 17.6667 91.2889 14.8667 84.8C12.0667 78.3111 10.6667 71.3778 10.6667 64C10.6667 56.5333 12.0667 49.5778 14.8667 43.1333C17.6667 36.6889 21.4667 31.0667 26.2667 26.2667L33.7334 33.7333C29.8223 37.6444 26.7779 42.1778 24.6001 47.3333C22.4223 52.4889 21.3334 58.0444 21.3334 64C21.3334 75.9111 25.4667 86 33.7334 94.2667C42.0001 102.533 52.089 106.667 64.0001 106.667C75.9112 106.667 86.0001 102.533 94.2667 94.2667C102.533 86 106.667 75.9111 106.667 64C106.667 58.0444 105.578 52.4889 103.4 47.3333C101.222 42.1778 98.1779 37.6444 94.2667 33.7333L101.733 26.2667C106.533 31.0667 110.333 36.6889 113.133 43.1333C115.933 49.5778 117.333 56.5333 117.333 64C117.333 71.3778 115.933 78.3111 113.133 84.8C110.333 91.2889 106.533 96.9333 101.733 101.733C96.9334 106.533 91.289 110.333 84.8001 113.133C78.3112 115.933 71.3779 117.333 64.0001 117.333ZM58.6667 69.3333V10.6667H69.3334V69.3333H58.6667Z" fill="white"/>
</svg>
