<svg width="256" height="256" viewBox="0 0 256 256" fill="none" xmlns="http://www.w3.org/2000/svg">
<path d="M53.3333 224C47.4667 224 42.4444 221.911 38.2667 217.733C34.0889 213.556 32 208.533 32 202.667V160H53.3333V202.667H96V224H53.3333ZM202.667 224H160V202.667H202.667V160H224V202.667C224 208.533 221.911 213.556 217.733 217.733C213.556 221.911 208.533 224 202.667 224ZM32 53.3333C32 47.4667 34.0889 42.4444 38.2667 38.2667C42.4444 34.0889 47.4667 32 53.3333 32H96V53.3333H53.3333V96H32V53.3333ZM224 53.3333V96H202.667V53.3333H160V32H202.667C208.533 32 213.556 34.0889 217.733 38.2667C221.911 42.4444 224 47.4667 224 53.3333ZM128 192C131.733 192 134.889 190.711 137.467 188.133C140.044 185.556 141.333 182.4 141.333 178.667C141.333 174.933 140.044 171.778 137.467 169.2C134.889 166.622 131.733 165.333 128 165.333C124.267 165.333 121.111 166.622 118.533 169.2C115.956 171.778 114.667 174.933 114.667 178.667C114.667 182.4 115.956 185.556 118.533 188.133C121.111 190.711 124.267 192 128 192ZM118.4 151.2H137.867C137.867 145.156 138.578 140.533 140 137.333C141.422 134.133 144.533 130.133 149.333 125.333C155.556 119.111 159.689 114.089 161.733 110.267C163.778 106.444 164.8 101.867 164.8 96.5333C164.8 86.9333 161.333 79.1111 154.4 73.0667C147.467 67.0222 138.667 64 128 64C119.111 64 111.467 66.3111 105.067 70.9333C98.6667 75.5556 94.0444 82.1333 91.2 90.6667L108.8 97.8667C110.044 93.2444 112.4 89.4667 115.867 86.5333C119.333 83.6 123.378 82.1333 128 82.1333C133.156 82.1333 137.289 83.5111 140.4 86.2667C143.511 89.0222 145.067 92.7111 145.067 97.3333C145.067 100.889 144.222 104.222 142.533 107.333C140.844 110.444 137.956 113.689 133.867 117.067C128 122.222 123.956 127.2 121.733 132C119.511 136.8 118.4 143.2 118.4 151.2Z" fill="#E8EAED"/>
</svg>
