<svg width="96" height="96" viewBox="0 0 96 96" fill="none" xmlns="http://www.w3.org/2000/svg">
<path d="M44 83.8C35.9333 82.8 29.25 79.2833 23.95 73.25C18.65 67.2167 16 60.1333 16 52C16 47.6 16.8667 43.3833 18.6 39.35C20.3333 35.3167 22.8 31.8 26 28.8L31.7 34.5C29.1667 36.7667 27.25 39.4 25.95 42.4C24.65 45.4 24 48.6 24 52C24 57.8667 25.8667 63.05 29.6 67.55C33.3333 72.05 38.1333 74.8 44 75.8V83.8ZM52 83.8V75.8C57.8 74.7333 62.5833 71.9667 66.35 67.5C70.1167 63.0333 72 57.8667 72 52C72 45.3333 69.6667 39.6667 65 35C60.3333 30.3333 54.6667 28 48 28H47.7L52.1 32.4L46.5 38L32.5 24L46.5 10L52.1 15.6L47.7 20H48C56.9333 20 64.5 23.1 70.7 29.3C76.9 35.5 80 43.0667 80 52C80 60.0667 77.35 67.1167 72.05 73.15C66.75 79.1833 60.0667 82.7333 52 83.8Z" fill="white"/>
</svg>
