<svg width="32" height="40" viewBox="0 0 32 40" fill="none" xmlns="http://www.w3.org/2000/svg">
<path d="M14 24H18V18H24V14H18V8H14V14H8V18H14V24ZM16 34.7C20.0667 30.9667 23.0833 27.575 25.05 24.525C27.0167 21.475 28 18.7667 28 16.4C28 12.7667 26.8417 9.79167 24.525 7.475C22.2083 5.15833 19.3667 4 16 4C12.6333 4 9.79167 5.15833 7.475 7.475C5.15833 9.79167 4 12.7667 4 16.4C4 18.7667 4.98333 21.475 6.95 24.525C8.91667 27.575 11.9333 30.9667 16 34.7ZM16 40C10.6333 35.4333 6.625 31.1917 3.975 27.275C1.325 23.3583 0 19.7333 0 16.4C0 11.4 1.60833 7.41667 4.825 4.45C8.04167 1.48333 11.7667 0 16 0C20.2333 0 23.9583 1.48333 27.175 4.45C30.3917 7.41667 32 11.4 32 16.4C32 19.7333 30.675 23.3583 28.025 27.275C25.375 31.1917 21.3667 35.4333 16 40Z" fill="#90908F"/>
</svg>
