<svg width="32" height="32" viewBox="0 0 32 32" fill="none" xmlns="http://www.w3.org/2000/svg">
<path d="M16 32C13.7867 32 11.7067 31.58 9.76 30.74C7.81333 29.9 6.12 28.76 4.68 27.32C3.24 25.88 2.1 24.1867 1.26 22.24C0.42 20.2933 0 18.2133 0 16C0 13.7867 0.42 11.7067 1.26 9.76C2.1 7.81333 3.24 6.12 4.68 4.68C6.12 3.24 7.81333 2.1 9.76 1.26C11.7067 0.42 13.7867 0 16 0C18.2133 0 20.2933 0.42 22.24 1.26C24.1867 2.1 25.88 3.24 27.32 4.68C28.76 6.12 29.9 7.81333 30.74 9.76C31.58 11.7067 32 13.7867 32 16C32 18.2133 31.58 20.2933 30.74 22.24C29.9 24.1867 28.76 25.88 27.32 27.32C25.88 28.76 24.1867 29.9 22.24 30.74C20.2933 31.58 18.2133 32 16 32ZM3.2 16H16V3.2C12.4267 3.2 9.4 4.44 6.92 6.92C4.44 9.4 3.2 12.4267 3.2 16Z" fill="white"/>
</svg>
