<svg width="32" height="32" viewBox="0 0 32 32" fill="none" xmlns="http://www.w3.org/2000/svg">
<path d="M31.5852 16.5167L17.1867 0.506717C16.5803 -0.168906 15.4156 -0.168906 14.8093 0.506717L0.41074 16.5167C0.203867 16.7467 0.0680348 17.0318 0.0196811 17.3375C-0.0286727 17.6431 0.0125239 17.9562 0.138286 18.2389C0.264048 18.5216 0.468986 18.7618 0.728301 18.9304C0.987616 19.099 1.29019 19.1887 1.59942 19.1888H4.7991V30.3958C4.7991 30.8204 4.96766 31.2276 5.26769 31.5279C5.56772 31.8281 5.97464 31.9968 6.39894 31.9968H25.597C26.0213 31.9968 26.4283 31.8281 26.7283 31.5279C27.0283 31.2276 27.1969 30.8204 27.1969 30.3958V19.1888H30.3966C30.7064 19.1901 31.0099 19.1012 31.2701 18.9329C31.5303 18.7646 31.736 18.5241 31.862 18.2408C31.988 17.9576 32.0289 17.6437 31.9798 17.3376C31.9306 17.0315 31.7936 16.7463 31.5852 16.5167ZM15.998 22.3908C14.7251 22.3908 13.5043 21.8848 12.6042 20.984C11.7041 20.0833 11.1985 18.8616 11.1985 17.5878C11.1985 16.314 11.7041 15.0923 12.6042 14.1916C13.5043 13.2908 14.7251 12.7848 15.998 12.7848C17.2709 12.7848 18.4917 13.2908 19.3918 14.1916C20.2918 15.0923 20.7975 16.314 20.7975 17.5878C20.7975 18.8616 20.2918 20.0833 19.3918 20.984C18.4917 21.8848 17.2709 22.3908 15.998 22.3908Z" fill="white"/>
</svg>
