<svg width="32" height="32" viewBox="0 0 32 32" fill="none" xmlns="http://www.w3.org/2000/svg">
<path d="M11.6219 31.8408L10.9851 26.7463C10.6401 26.6136 10.3151 26.4544 10.01 26.2687C9.70481 26.0829 9.4063 25.8839 9.11443 25.6716L4.37811 27.6617L0 20.0995L4.0995 16.995C4.07297 16.8093 4.0597 16.6302 4.0597 16.4577V15.3831C4.0597 15.2106 4.07297 15.0315 4.0995 14.8458L0 11.7413L4.37811 4.1791L9.11443 6.16915C9.4063 5.95688 9.71144 5.75788 10.0299 5.57214C10.3483 5.3864 10.6667 5.2272 10.9851 5.09453L11.6219 0H20.3781L21.0149 5.09453C21.3599 5.2272 21.6849 5.3864 21.99 5.57214C22.2952 5.75788 22.5937 5.95688 22.8856 6.16915L27.6219 4.1791L32 11.7413L27.9005 14.8458C27.927 15.0315 27.9403 15.2106 27.9403 15.3831V16.4577C27.9403 16.6302 27.9138 16.8093 27.8607 16.995L31.9602 20.0995L27.5821 27.6617L22.8856 25.6716C22.5937 25.8839 22.2886 26.0829 21.9701 26.2687C21.6517 26.4544 21.3333 26.6136 21.0149 26.7463L20.3781 31.8408H11.6219ZM14.408 28.6567H17.5522L18.1095 24.4378C18.932 24.2255 19.6949 23.9138 20.398 23.5025C21.1012 23.0912 21.7446 22.5937 22.3284 22.0099L26.2687 23.6418L27.8209 20.9353L24.398 18.3483C24.5307 17.9768 24.6235 17.5854 24.6766 17.1741C24.7297 16.7629 24.7562 16.3449 24.7562 15.9204C24.7562 15.4959 24.7297 15.0779 24.6766 14.6667C24.6235 14.2554 24.5307 13.864 24.398 13.4925L27.8209 10.9055L26.2687 8.199L22.3284 9.87065C21.7446 9.26036 21.1012 8.74959 20.398 8.33831C19.6949 7.92703 18.932 7.61526 18.1095 7.40298L17.592 3.18408H14.4478L13.8905 7.40298C13.068 7.61526 12.3051 7.92703 11.602 8.33831C10.8988 8.74959 10.2554 9.2471 9.67164 9.83085L5.73134 8.199L4.1791 10.9055L7.60199 13.4527C7.46932 13.8507 7.37645 14.2488 7.32338 14.6468C7.27032 15.0448 7.24378 15.4693 7.24378 15.9204C7.24378 16.3449 7.27032 16.7562 7.32338 17.1542C7.37645 17.5522 7.46932 17.9502 7.60199 18.3483L4.1791 20.9353L5.73134 23.6418L9.67164 21.9701C10.2554 22.5804 10.8988 23.0912 11.602 23.5025C12.3051 23.9138 13.068 24.2255 13.8905 24.4378L14.408 28.6567ZM16.0796 21.4925C17.6186 21.4925 18.932 20.9486 20.0199 19.8607C21.1078 18.7728 21.6517 17.4594 21.6517 15.9204C21.6517 14.3814 21.1078 13.068 20.0199 11.9801C18.932 10.8922 17.6186 10.3483 16.0796 10.3483C14.5141 10.3483 13.194 10.8922 12.1194 11.9801C11.0448 13.068 10.5075 14.3814 10.5075 15.9204C10.5075 17.4594 11.0448 18.7728 12.1194 19.8607C13.194 20.9486 14.5141 21.4925 16.0796 21.4925Z" fill="#90908F"/>
</svg>
